<svg xmlns="http://www.w3.org/2000/svg" width="12.731" height="16.615" viewBox="0 0 12.731 16.615">
  <g id="basket_2_" data-name="basket (2)" transform="translate(-7.479)">
    <path id="Path_46" data-name="Path 46" d="M20.21,2.643A.914.914,0,0,0,19.3,1.73H16.519V.781A.755.755,0,0,0,15.794,0h-3.9a.755.755,0,0,0-.724.781V1.73H8.392a.911.911,0,0,0-.13,1.813l1.347,11.91a1.309,1.309,0,0,0,1.3,1.162h5.868a1.309,1.309,0,0,0,1.3-1.162l1.347-11.91A.911.911,0,0,0,20.21,2.643ZM11.674.781A.257.257,0,0,1,11.9.5h3.9a.258.258,0,0,1,.221.277V1.73H11.674Zm5.9,14.615a.805.805,0,0,1-.8.715H10.911a.806.806,0,0,1-.8-.715L8.771,3.556H18.918ZM19.3,3.052H8.392a.409.409,0,1,1,0-.819H19.3a.409.409,0,1,1,0,.819Z" fill="#00bcd0"/>
    <path id="Path_47" data-name="Path 47" d="M25.65,18.466a.249.249,0,0,0-.272.229l-.827,9.565a.252.252,0,0,0,.229.273H24.8a.251.251,0,0,0,.251-.23l.827-9.565A.252.252,0,0,0,25.65,18.466Zm-6.148,0a.252.252,0,0,0-.229.273L20.1,28.3a.251.251,0,0,0,.251.23h.022a.253.253,0,0,0,.229-.273L19.775,18.7A.251.251,0,0,0,19.5,18.466Zm3.074,0a.252.252,0,0,0-.252.252v9.565a.252.252,0,0,0,.5,0V18.717A.252.252,0,0,0,22.576,18.465Z" transform="translate(-8.732 -13.671)" fill="#00bcd0"/>
  </g>
</svg>
